<mxfile host="app.diagrams.net" agent="Mozilla/5.0 (X11; Linux x86_64; rv:132.0) Gecko/20100101 Firefox/132.0" version="24.8.4">
  <diagram name="Page-1" id="R__uL9kAXmjj5jgpeNAh">
    <mxGraphModel dx="1687" dy="933" grid="1" gridSize="10" guides="1" tooltips="1" connect="1" arrows="1" fold="1" page="1" pageScale="1" pageWidth="850" pageHeight="1100" math="0" shadow="0">
      <root>
        <mxCell id="0" />
        <mxCell id="1" parent="0" />
        <mxCell id="Ke3QfBTP1RmcJFS6_Abw-1" value="" style="rounded=1;whiteSpace=wrap;html=1;" vertex="1" parent="1">
          <mxGeometry x="50" y="60" width="820" height="690" as="geometry" />
        </mxCell>
        <mxCell id="Ke3QfBTP1RmcJFS6_Abw-2" value="User opens app" style="text;html=1;align=center;verticalAlign=middle;whiteSpace=wrap;rounded=0;" vertex="1" parent="1">
          <mxGeometry x="90" y="80" width="100" height="30" as="geometry" />
        </mxCell>
        <mxCell id="Ke3QfBTP1RmcJFS6_Abw-9" style="edgeStyle=orthogonalEdgeStyle;rounded=0;orthogonalLoop=1;jettySize=auto;html=1;exitX=1;exitY=0.5;exitDx=0;exitDy=0;" edge="1" parent="1" source="Ke3QfBTP1RmcJFS6_Abw-6" target="Ke3QfBTP1RmcJFS6_Abw-7">
          <mxGeometry relative="1" as="geometry" />
        </mxCell>
        <mxCell id="Ke3QfBTP1RmcJFS6_Abw-6" value="START" style="rounded=1;whiteSpace=wrap;html=1;" vertex="1" parent="1">
          <mxGeometry x="100" y="230" width="110" height="40" as="geometry" />
        </mxCell>
        <mxCell id="Ke3QfBTP1RmcJFS6_Abw-11" style="edgeStyle=orthogonalEdgeStyle;rounded=0;orthogonalLoop=1;jettySize=auto;html=1;exitX=0.5;exitY=0;exitDx=0;exitDy=0;entryX=0;entryY=0.5;entryDx=0;entryDy=0;" edge="1" parent="1" source="Ke3QfBTP1RmcJFS6_Abw-7" target="Ke3QfBTP1RmcJFS6_Abw-10">
          <mxGeometry relative="1" as="geometry" />
        </mxCell>
        <mxCell id="Ke3QfBTP1RmcJFS6_Abw-17" style="edgeStyle=orthogonalEdgeStyle;rounded=0;orthogonalLoop=1;jettySize=auto;html=1;exitX=0.5;exitY=1;exitDx=0;exitDy=0;entryX=0;entryY=0.5;entryDx=0;entryDy=0;" edge="1" parent="1" source="Ke3QfBTP1RmcJFS6_Abw-7" target="Ke3QfBTP1RmcJFS6_Abw-16">
          <mxGeometry relative="1" as="geometry" />
        </mxCell>
        <mxCell id="Ke3QfBTP1RmcJFS6_Abw-7" value="Has cookie?" style="rhombus;whiteSpace=wrap;html=1;" vertex="1" parent="1">
          <mxGeometry x="260" y="210" width="80" height="80" as="geometry" />
        </mxCell>
        <mxCell id="Ke3QfBTP1RmcJFS6_Abw-10" value="END" style="rounded=0;whiteSpace=wrap;html=1;" vertex="1" parent="1">
          <mxGeometry x="365" y="170" width="120" height="30" as="geometry" />
        </mxCell>
        <mxCell id="Ke3QfBTP1RmcJFS6_Abw-12" value="No" style="text;html=1;align=center;verticalAlign=middle;whiteSpace=wrap;rounded=0;" vertex="1" parent="1">
          <mxGeometry x="280" y="310" width="60" height="30" as="geometry" />
        </mxCell>
        <mxCell id="Ke3QfBTP1RmcJFS6_Abw-15" value="Yes" style="text;html=1;align=center;verticalAlign=middle;whiteSpace=wrap;rounded=0;" vertex="1" parent="1">
          <mxGeometry x="280" y="160" width="60" height="30" as="geometry" />
        </mxCell>
        <mxCell id="Ke3QfBTP1RmcJFS6_Abw-16" value="Prompt user name" style="rounded=0;whiteSpace=wrap;html=1;" vertex="1" parent="1">
          <mxGeometry x="365" y="300" width="120" height="30" as="geometry" />
        </mxCell>
        <mxCell id="Ke3QfBTP1RmcJFS6_Abw-18" value="BE" style="rounded=1;whiteSpace=wrap;html=1;" vertex="1" parent="1">
          <mxGeometry x="730" y="380" width="80" height="40" as="geometry" />
        </mxCell>
        <mxCell id="Ke3QfBTP1RmcJFS6_Abw-19" value="FE" style="rounded=1;whiteSpace=wrap;html=1;" vertex="1" parent="1">
          <mxGeometry x="370" y="380" width="80" height="40" as="geometry" />
        </mxCell>
        <mxCell id="Ke3QfBTP1RmcJFS6_Abw-20" value="Actor" style="shape=umlActor;verticalLabelPosition=bottom;verticalAlign=top;html=1;outlineConnect=0;" vertex="1" parent="1">
          <mxGeometry x="160" y="370" width="30" height="60" as="geometry" />
        </mxCell>
        <mxCell id="Ke3QfBTP1RmcJFS6_Abw-21" value="" style="endArrow=none;dashed=1;html=1;rounded=0;entryX=0.5;entryY=1;entryDx=0;entryDy=0;" edge="1" parent="1" target="Ke3QfBTP1RmcJFS6_Abw-19">
          <mxGeometry width="50" height="50" relative="1" as="geometry">
            <mxPoint x="410" y="700" as="sourcePoint" />
            <mxPoint x="640" y="350" as="targetPoint" />
          </mxGeometry>
        </mxCell>
        <mxCell id="Ke3QfBTP1RmcJFS6_Abw-22" value="" style="endArrow=none;dashed=1;html=1;rounded=0;entryX=0.5;entryY=1;entryDx=0;entryDy=0;" edge="1" parent="1">
          <mxGeometry width="50" height="50" relative="1" as="geometry">
            <mxPoint x="769.58" y="700" as="sourcePoint" />
            <mxPoint x="769.58" y="420" as="targetPoint" />
          </mxGeometry>
        </mxCell>
        <mxCell id="Ke3QfBTP1RmcJFS6_Abw-23" value="" style="endArrow=none;dashed=1;html=1;rounded=0;" edge="1" parent="1">
          <mxGeometry width="50" height="50" relative="1" as="geometry">
            <mxPoint x="180" y="700" as="sourcePoint" />
            <mxPoint x="180" y="460" as="targetPoint" />
          </mxGeometry>
        </mxCell>
        <mxCell id="Ke3QfBTP1RmcJFS6_Abw-24" value="" style="endArrow=classic;html=1;rounded=0;" edge="1" parent="1">
          <mxGeometry width="50" height="50" relative="1" as="geometry">
            <mxPoint x="180" y="490" as="sourcePoint" />
            <mxPoint x="410" y="490" as="targetPoint" />
          </mxGeometry>
        </mxCell>
        <mxCell id="Ke3QfBTP1RmcJFS6_Abw-26" value="Enter user name" style="rounded=1;whiteSpace=wrap;html=1;" vertex="1" parent="1">
          <mxGeometry x="190" y="500" width="210" height="30" as="geometry" />
        </mxCell>
        <mxCell id="Ke3QfBTP1RmcJFS6_Abw-27" value="" style="endArrow=classic;html=1;rounded=0;" edge="1" parent="1">
          <mxGeometry width="50" height="50" relative="1" as="geometry">
            <mxPoint x="410" y="540" as="sourcePoint" />
            <mxPoint x="770" y="540" as="targetPoint" />
          </mxGeometry>
        </mxCell>
        <mxCell id="Ke3QfBTP1RmcJFS6_Abw-28" value="POST /auth" style="rounded=1;whiteSpace=wrap;html=1;" vertex="1" parent="1">
          <mxGeometry x="425" y="550" width="325" height="30" as="geometry" />
        </mxCell>
        <mxCell id="Ke3QfBTP1RmcJFS6_Abw-29" value="" style="endArrow=classic;html=1;rounded=0;" edge="1" parent="1">
          <mxGeometry width="50" height="50" relative="1" as="geometry">
            <mxPoint x="770" y="620" as="sourcePoint" />
            <mxPoint x="410" y="620" as="targetPoint" />
          </mxGeometry>
        </mxCell>
        <mxCell id="Ke3QfBTP1RmcJFS6_Abw-30" value="HTTP 200 set-cookie" style="rounded=1;whiteSpace=wrap;html=1;" vertex="1" parent="1">
          <mxGeometry x="430" y="630" width="325" height="30" as="geometry" />
        </mxCell>
        <mxCell id="Ke3QfBTP1RmcJFS6_Abw-31" value="" style="endArrow=classic;html=1;rounded=0;" edge="1" parent="1">
          <mxGeometry width="50" height="50" relative="1" as="geometry">
            <mxPoint x="410" y="680" as="sourcePoint" />
            <mxPoint x="180" y="680" as="targetPoint" />
          </mxGeometry>
        </mxCell>
        <mxCell id="Ke3QfBTP1RmcJFS6_Abw-32" value="Show app" style="rounded=1;whiteSpace=wrap;html=1;" vertex="1" parent="1">
          <mxGeometry x="190" y="690" width="210" height="30" as="geometry" />
        </mxCell>
      </root>
    </mxGraphModel>
  </diagram>
</mxfile>
